<svg width="4516" height="1939" viewBox="0 0 4516 1939" fill="none" xmlns="http://www.w3.org/2000/svg">
<g opacity="0.15" clip-path="url(#clip0_1284_388)">
<path d="M1449.53 1533.37H1243.56V1894.85H744.194V1533.37H0V1164.12L777.226 27.208H1243.56V1156.35H1449.53V1533.37ZM744.194 1156.35V938.68C744.194 897.868 746.137 843.452 748.08 773.488C751.966 703.524 753.909 668.542 755.852 664.656H742.251C713.105 730.732 680.073 790.979 643.154 849.282L437.19 1156.35H744.194Z" fill="black"/>
<path d="M2930.15 963.945C2930.15 1294.33 2873.8 1537.26 2764.98 1690.79C2654.23 1844.32 2485.18 1922.06 2255.9 1922.06C2032.45 1922.06 1865.35 1842.38 1750.7 1681.07C1638.01 1519.77 1581.66 1280.73 1581.66 963.945C1581.66 631.617 1636.06 388.688 1748.76 233.213C1859.52 77.7375 2028.56 0 2257.84 0C2479.35 0 2648.4 81.6244 2761.1 242.93C2873.8 404.235 2930.15 643.278 2930.15 963.945ZM2082.97 963.945C2082.97 1175.78 2096.57 1321.54 2121.83 1399.28C2149.03 1478.96 2191.78 1517.82 2253.96 1517.82C2316.14 1517.82 2360.83 1477.01 2388.03 1395.39C2413.29 1313.76 2426.89 1169.95 2426.89 963.945C2426.89 755.997 2413.29 612.183 2388.03 528.615C2360.83 445.047 2318.08 404.235 2255.9 404.235C2193.72 404.235 2149.03 445.047 2123.77 524.728C2096.57 604.409 2082.97 750.167 2082.97 963.945Z" fill="black"/>
<path d="M4515.69 1533.37H4309.72V1894.85H3810.36V1533.37H3066.16V1164.12L3843.39 27.208H4309.72V1156.35H4515.69V1533.37ZM3812.3 1156.35V938.68C3812.3 897.868 3814.24 843.452 3816.19 773.488C3820.07 703.524 3822.01 668.542 3823.96 664.656H3810.36C3781.21 730.732 3748.18 790.979 3711.26 849.282L3503.35 1158.29H3812.3V1156.35Z" fill="black"/>
</g>
<path d="M1997.89 559.866C1997.89 620.905 2048.03 668.865 2106.89 668.865C2165.75 668.865 2215.89 618.725 2215.89 559.866" stroke="#FFCC00" stroke-width="33.1687" stroke-miterlimit="10"/>
<path d="M2398.99 866.712V1619.33H2235.49" stroke="#00573C" stroke-width="33.1687" stroke-miterlimit="10"/>
<path d="M1856.18 867.239V1619.33H1986.98" stroke="#00573C" stroke-width="33.1687" stroke-miterlimit="10"/>
<path d="M1885.64 1625.61V1699.73" stroke="#00573C" stroke-width="33.1687" stroke-miterlimit="10"/>
<path d="M1965.19 1835.15V1922.35H1986.99V1715.25H1877.99L1812.59 1835.15L1683.97 1900.55V1922.35H1877.99L1965.19 1835.15Z" stroke="#FFCC00" stroke-width="33.1687" stroke-miterlimit="10"/>
<path d="M2326.12 1625.61V1699.73" stroke="#00573C" stroke-width="33.1687" stroke-miterlimit="10"/>
<path d="M2224.59 947.9V1693.45" stroke="#00573C" stroke-width="33.1687" stroke-miterlimit="10"/>
<path d="M2246.39 1835.15V1922.35H2224.59V1715.25H2331.41L2396.81 1835.15L2527.61 1900.55V1922.35H2331.41L2246.39 1835.15Z" stroke="#FFCC00" stroke-width="33.1687" stroke-miterlimit="10"/>
<path d="M1900.9 566.203L2041.47 753.88H2061.09L2104.69 688.481H2106.87L2148.29 753.88H2170.09L2344.03 570.184" stroke="#FFCC00" stroke-width="33.1687" stroke-miterlimit="10"/>
<path d="M1867.99 1465.55L1791.7 1443.75V1334.75H1726.3V935.814C1726.3 905.295 1730.66 866.055 1743.74 820.276C1756.82 774.496 1918.14 645.907 1933.4 621.927" stroke="#00573C" stroke-width="33.1687" stroke-miterlimit="10"/>
<path d="M2299.59 627.897L2244.21 797.482C2231.13 838.901 2224.59 882.5 2224.59 926.1V956.619" stroke="#00573C" stroke-width="33.1687" stroke-miterlimit="10"/>
<path d="M1986.98 947.9V1693.45" stroke="#00573C" stroke-width="33.1687" stroke-miterlimit="10"/>
<path d="M1918.81 643.155L1967.36 797.482C1980.44 838.901 1986.98 882.5 1986.98 926.1V956.619" stroke="#00573C" stroke-width="33.1687" stroke-miterlimit="10"/>
<path d="M1986.98 1564.83H2224.6" stroke="#00573C" stroke-width="33.1687" stroke-miterlimit="10"/>
<path d="M1986.98 1403.51H2235.5" stroke="#00573C" stroke-width="33.1687" stroke-miterlimit="10"/>
<path d="M2221.97 569.52C2296.09 569.52 2558.13 564.221 2632.25 564.221C2632.25 623.08 2632.25 699.379 2632.25 758.239C2558.13 758.239 2334.56 756.059 2260.44 758.239" stroke="#00573C" stroke-width="33.1687" stroke-miterlimit="10"/>
<path d="M2721.63 740.8V1418.77" stroke="#00573C" stroke-width="33.1687" stroke-miterlimit="10"/>
<path d="M2721.63 267.75L2721.97 571.346" stroke="#00573C" stroke-width="33.1687" stroke-miterlimit="10"/>
<path d="M2688.93 575.125L2638.79 605.645V716.823L2756.51 740.803L2795.75 705.924L2806.65 653.604L2763.05 647.065L2773.95 592.565L2688.93 575.125Z" fill="#121212" stroke="white" stroke-width="33.1687" stroke-miterlimit="10"/>
<path d="M2721.63 1418.77C2721.63 1586.63 2721.63 1752.31 2721.63 1920.16M2721.63 1920.16C2684.57 1920.16 2645.33 1920.16 2608.27 1920.16C2608.27 1915.8 2608.27 1913.62 2608.27 1911.44C2645.33 1747.95 2684.57 1582.27 2721.63 1418.77C2758.69 1584.45 2797.93 1747.95 2837.17 1913.62C2837.17 1915.8 2837.17 1917.98 2837.17 1920.16C2797.93 1920.16 2760.87 1920.16 2721.63 1920.16Z" stroke="#00573C" stroke-width="33.1687" stroke-miterlimit="10"/>
<path d="M1786.42 1349.01H1854" stroke="#00573C" stroke-width="33.1687" stroke-miterlimit="10"/>
<path d="M2263.81 255.29H1946.06C1916.81 255.29 1893.1 279.001 1893.1 308.249V520.087C1893.1 549.335 1916.81 573.046 1946.06 573.046H2263.81C2293.06 573.046 2316.77 549.335 2316.77 520.087V308.249C2316.77 279.001 2293.06 255.29 2263.81 255.29Z" stroke="#00573C" stroke-width="52.9593" stroke-linecap="round" stroke-linejoin="round"/>
<path d="M1840.14 414.168H1893.1" stroke="#00573C" stroke-width="52.9593" stroke-linecap="round" stroke-linejoin="round"/>
<path d="M2316.78 414.168H2369.74" stroke="#00573C" stroke-width="52.9593" stroke-linecap="round" stroke-linejoin="round"/>
<path d="M2184.38 387.692V440.651" stroke="#00573C" stroke-width="52.9593" stroke-linecap="round" stroke-linejoin="round"/>
<path d="M2025.5 387.692V440.651" stroke="#00573C" stroke-width="52.9593" stroke-linecap="round" stroke-linejoin="round"/>
<path d="M2290.3 255.285L2234.43 79.0098C2231.98 71.97 2228.08 65.5255 2222.97 60.0979C2217.86 54.6702 2211.67 50.3816 2204.79 47.5124C2197.91 44.6431 2190.51 43.2579 2183.06 43.4473C2175.61 43.6366 2168.28 45.3963 2161.56 48.6112L2127.77 64.7638C2120.64 68.1655 2112.84 69.9298 2104.94 69.9273H2012.26C2000.73 69.925 1989.51 73.6895 1980.3 80.6486C1971.1 87.6076 1964.43 97.3806 1961.29 108.482L1919.58 255.285" stroke="#00573C" stroke-width="52.9593" stroke-linecap="round" stroke-linejoin="round"/>
<path d="M1840.14 255.29H2369.74" stroke="#00573C" stroke-width="52.9593" stroke-linecap="round" stroke-linejoin="round"/>
<g filter="url(#filter0_d_1284_388)">
<path d="M1893.65 184.75L1895.99 190.454L1899.25 197.34L1898.53 201.063L1898.39 204.293L1898.99 208.318L1900.7 212.405L1902.7 214.55L1904.58 216.012L1906.28 216.71L1907.56 214.147L1908.22 211.473L1908.06 208.302L1907.27 205.02L1905.49 201.607L1903.13 198.688L1900.69 196.818L1899.17 193.871L1897.8 191.46L1895.76 187.957L1893.65 184.75Z" fill="#FFCC00"/>
<path d="M1884.93 174.258L1886.47 180.2L1888.76 187.411L1887.55 191.103L1886.99 194.346L1887.05 198.452L1888.18 202.712L1889.85 205.041L1891.51 206.671L1893.08 207.517L1894.68 205.041L1895.68 202.402L1895.94 199.193L1895.61 195.82L1894.32 192.232L1892.38 189.093L1890.24 187.006L1889.14 183.909L1888.11 181.365L1886.58 177.665L1884.93 174.258Z" fill="#FFCC00"/>
<path d="M1877.81 163.231L1878.39 169.371L1879.51 176.861L1877.76 180.464L1876.71 183.678L1876.13 187.821L1876.58 192.226L1877.85 194.736L1879.22 196.54L1880.62 197.545L1882.57 195.206L1883.95 192.643L1884.71 189.435L1884.91 186.003L1884.2 182.261L1882.79 178.909L1881.02 176.596L1880.43 173.368L1879.82 170.704L1878.89 166.825L1877.81 163.231Z" fill="#FFCC00"/>
<path d="M1870.3 152.539L1870.61 158.718L1871.39 166.268L1869.49 169.836L1868.3 173.032L1867.54 177.175L1867.79 181.609L1868.95 184.164L1870.22 186.013L1871.58 187.061L1873.62 184.767L1875.11 182.233L1876 179.034L1876.35 175.595L1875.81 171.819L1874.57 168.415L1872.9 166.044L1872.46 162.787L1871.97 160.096L1871.22 156.177L1870.3 152.539Z" fill="#FFCC00"/>
<path d="M1942.56 234.117L1945.1 234.411L1939.61 232.821L1933.15 230.574L1927.47 228.597L1921.46 226.074L1916.66 223.921L1910.94 220.963L1904.96 217.538L1899.68 214.304L1894.32 210.613L1889.67 207.113L1885.05 203.464L1882.91 201.536L1880.13 199.121L1873.96 192.674L1870.74 189.029L1867.74 185.245L1864.75 181.086L1862.45 177.493L1862.96 176.543L1863.95 172.909L1863.71 169.658L1862.34 166.117L1861.08 164.013L1858.72 161.847L1855.72 159.57L1854.27 154.82L1853.15 150.239L1852.43 145.154L1852.6 150.208L1853.09 155.054L1854.21 160.012L1852.75 162.564L1852.39 164.426L1852.95 167.846L1855.25 172.945L1858.39 176.887L1860.68 178.221L1862.09 181.614L1860.69 180.48L1858.92 179.703L1855.93 178.555L1852.54 177.912L1848.11 177.286L1844.56 173.472L1840.86 168.745L1843.31 172.874L1846.53 177.648L1847.98 180.516L1850.49 183.594L1853.38 185.94L1857.03 188.18L1860.28 189.417L1863.89 189.922L1867.32 190.04L1869.28 193.087L1865.26 191.957L1861.65 191.452L1857.45 191.441L1854.79 191.216L1850.29 187.874L1846.26 184.485L1847.78 186.302L1851.21 189.809L1855.06 193.188L1856.76 195.769L1860.05 198.364L1862.78 199.798L1867.68 201.129L1871.96 201.596L1876.68 201.411L1879.97 204.759L1875.76 203.994L1872.45 203.807L1868.06 204.162L1865.26 204.531L1862.86 203.266L1859.91 201.594L1854.96 198.529L1859.03 202.146L1861.47 204.016L1864.53 205.619L1865.86 207.049L1868.85 209.703L1872.58 211.269L1878.08 212.482L1882.87 212.753L1887.07 212.387L1889.35 211.839L1893.3 214.396L1889.5 213.88L1886.96 213.963L1884.09 214.252L1881.03 214.908L1877.83 215.781L1874.91 214.713L1872.7 213.835L1869.67 212.46L1864.58 209.989L1868.5 212.695L1871.93 214.695L1874.29 215.732L1877.61 217.049L1878.79 217.944L1880.68 219.405L1882.78 220.352L1885.73 221.272L1889.68 221.946L1895.39 221.892L1899.11 221.199L1903.01 220.139L1908.88 223.256L1918.33 227.403L1923.2 229.259L1929.69 231.357L1933.45 232.398L1936.22 232.93L1938.61 233.442L1940.57 233.854L1942.56 234.117Z" fill="#FFCC00"/>
<path d="M1934.65 181.776L1932.29 185.537L1929.61 190.236L1927.17 191.875L1925.26 193.474L1923.18 195.748L1921.5 198.454L1921.05 200.273L1920.95 201.702L1921.22 202.674L1923.21 201.829L1925.01 200.701L1926.78 199.025L1928.36 197.065L1929.62 194.677L1930.37 192.328L1930.48 190.49L1931.58 188.434L1932.42 186.706L1933.64 184.178L1934.65 181.776Z" fill="#FFCC00"/>
<path d="M1937.24 173.26L1934.43 176.852L1931.18 181.363L1928.57 182.811L1926.47 184.263L1924.13 186.38L1922.12 188.966L1921.44 190.763L1921.16 192.195L1921.29 193.196L1923.35 192.511L1925.27 191.525L1927.23 189.984L1929.04 188.141L1930.6 185.84L1931.64 183.535L1932 181.692L1933.35 179.712L1934.41 178.041L1935.93 175.596L1937.24 173.26Z" fill="#FFCC00"/>
<path d="M1940.78 165.048L1937.47 168.394L1933.59 172.625L1930.82 173.83L1928.55 175.089L1925.93 176.995L1923.56 179.406L1922.62 181.15L1922.12 182.566L1922.1 183.588L1924.22 183.099L1926.25 182.292L1928.4 180.929L1930.46 179.248L1932.33 177.08L1933.71 174.859L1934.34 173.036L1935.97 171.172L1937.26 169.591L1939.13 167.275L1940.78 165.048Z" fill="#FFCC00"/>
<path d="M1943.97 156.869L1940.53 160.136L1936.48 164.274L1933.67 165.407L1931.35 166.607L1928.66 168.447L1926.2 170.801L1925.19 172.525L1924.63 173.933L1924.56 174.959L1926.69 174.527L1928.75 173.773L1930.95 172.464L1933.07 170.834L1935.03 168.711L1936.5 166.52L1937.21 164.708L1938.91 162.882L1940.27 161.331L1942.23 159.059L1943.97 156.869Z" fill="#FFCC00"/>
<path d="M1925.57 224.711L1926.41 225.783L1925.15 222.979L1923.88 219.492L1922.77 216.424L1921.84 212.955L1921.18 210.117L1920.62 206.533L1920.22 202.617L1919.99 199.052L1919.99 195.227L1920.17 191.752L1920.44 188.215L1920.7 186.454L1921 184.216L1922.27 178.686L1923.09 175.659L1924.09 172.641L1925.3 169.43L1926.46 166.763L1927.21 166.464L1929.69 164.965L1931.48 163.221L1932.97 160.915L1933.69 159.384L1934 157.42L1934.13 155.173L1936.29 152.221L1938.49 149.476L1941.14 146.62L1938.29 149.26L1935.69 151.914L1933.27 154.852L1931.22 155.624L1930 156.443L1928.25 158.394L1926.22 161.832L1925.2 164.984L1925.34 166.495L1923.94 168.739L1924.04 167.651L1923.78 166.612L1923.26 164.943L1922.28 163.385L1920.89 161.462L1921.68 158.228L1922.94 154.473L1921.53 157.468L1920.05 161.073L1918.97 163.062L1918.19 165.546L1917.98 167.788L1918.14 170.256L1918.72 172.065L1919.86 173.632L1921.15 174.935L1920.17 177.202L1919.23 175.168L1918.09 173.6L1916.43 172.072L1915.5 170.995L1915.64 167.656L1916 164.465L1915.55 165.943L1914.9 168.98L1914.47 172.098L1913.66 174.034L1913.47 176.55L1913.72 178.273L1914.9 180.73L1916.33 182.518L1918.3 184.133L1917.68 187.035L1916.45 185.121L1915.24 183.823L1913.3 182.416L1911.98 181.59L1911.76 180.074L1911.55 178.15L1911.35 174.792L1910.88 178.112L1910.77 179.95L1911.06 181.879L1910.76 183.092L1910.42 185.532L1910.99 187.682L1912.47 190.293L1914.22 192.168L1916.09 193.504L1917.32 194.051L1917.41 196.788L1916.2 195.149L1915.14 194.27L1913.84 193.376L1912.25 192.603L1910.47 191.888L1909.93 190.287L1909.56 189.036L1909.15 187.237L1908.56 184.129L1908.55 186.93L1908.76 189.196L1909.1 190.581L1909.65 192.457L1909.61 193.342L1909.51 194.772L1909.8 196.017L1910.44 197.556L1911.62 199.331L1913.91 201.373L1915.79 202.367L1917.95 203.24L1918.48 206.959L1919.83 212.501L1920.69 215.213L1922.06 218.638L1922.95 220.532L1923.74 221.807L1924.4 222.937L1924.93 223.855L1925.57 224.711Z" fill="#FFCC00"/>
</g>
<defs>
<filter id="filter0_d_1284_388" x="1835.7" y="139.993" width="114.56" height="99.5792" filterUnits="userSpaceOnUse" color-interpolation-filters="sRGB">
<feFlood flood-opacity="0" result="BackgroundImageFix"/>
<feColorMatrix in="SourceAlpha" type="matrix" values="0 0 0 0 0 0 0 0 0 0 0 0 0 0 0 0 0 0 127 0" result="hardAlpha"/>
<feOffset/>
<feGaussianBlur stdDeviation="2.58052"/>
<feComposite in2="hardAlpha" operator="out"/>
<feColorMatrix type="matrix" values="0 0 0 0 0 0 0 0 0 0 0 0 0 0 0 0 0 0 0.35 0"/>
<feBlend mode="normal" in2="BackgroundImageFix" result="effect1_dropShadow_1284_388"/>
<feBlend mode="normal" in="SourceGraphic" in2="effect1_dropShadow_1284_388" result="shape"/>
</filter>
<clipPath id="clip0_1284_388">
<rect width="4515.68" height="1922.06" fill="white"/>
</clipPath>
</defs>
</svg>
