<svg width="4516" height="2439" viewBox="0 0 4516 2439" fill="none" xmlns="http://www.w3.org/2000/svg">
<g opacity="0.15" clip-path="url(#clip0_1284_388)">
<path d="M1449.53 1779.03H1243.56V2140.51H744.194V1779.03H0V1409.77L777.226 272.862H1243.56V1402H1449.53V1779.03ZM744.194 1402V1184.33C744.194 1143.52 746.137 1089.11 748.08 1019.14C751.966 949.179 753.909 914.197 755.852 910.31H742.251C713.105 976.387 680.073 1036.63 643.154 1094.94L437.19 1402H744.194Z" fill="black"/>
<path d="M2930.15 1209.6C2930.15 1539.98 2873.8 1782.91 2764.98 1936.45C2654.23 2089.98 2485.18 2167.71 2255.9 2167.71C2032.45 2167.71 1865.35 2088.03 1750.7 1926.73C1638.01 1765.42 1581.66 1526.38 1581.66 1209.6C1581.66 877.272 1636.06 634.342 1748.76 478.867C1859.52 323.392 2028.56 245.654 2257.84 245.654C2479.35 245.654 2648.4 327.279 2761.1 488.584C2873.8 649.889 2930.15 888.932 2930.15 1209.6ZM2082.97 1209.6C2082.97 1421.43 2096.57 1567.19 2121.83 1644.93C2149.03 1724.61 2191.78 1763.48 2253.96 1763.48C2316.14 1763.48 2360.83 1722.67 2388.03 1641.04C2413.29 1559.42 2426.89 1415.6 2426.89 1209.6C2426.89 1001.65 2413.29 857.837 2388.03 774.269C2360.83 690.702 2318.08 649.889 2255.9 649.889C2193.72 649.889 2149.03 690.702 2123.77 770.383C2096.57 850.064 2082.97 995.821 2082.97 1209.6Z" fill="black"/>
<path d="M4515.69 1779.03H4309.72V2140.51H3810.36V1779.03H3066.16V1409.77L3843.39 272.862H4309.72V1402H4515.69V1779.03ZM3812.3 1402V1184.33C3812.3 1143.52 3814.24 1089.11 3816.19 1019.14C3820.07 949.179 3822.01 914.197 3823.96 910.31H3810.36C3781.21 976.387 3748.18 1036.63 3711.26 1094.94L3503.35 1403.94H3812.3V1402Z" fill="black"/>
</g>
<g filter="url(#filter0_d_1284_388)">
<path d="M1997.89 805.52C1997.89 866.559 2048.03 914.519 2106.89 914.519C2165.75 914.519 2215.89 864.379 2215.89 805.52" stroke="#FFCC00" stroke-width="33.1687" stroke-miterlimit="10"/>
<path d="M2398.99 1112.37V1864.98H2235.49" stroke="#00573C" stroke-width="33.1687" stroke-miterlimit="10"/>
<path d="M1856.18 1112.89V1864.98H1986.98" stroke="#00573C" stroke-width="33.1687" stroke-miterlimit="10"/>
<path d="M1885.64 1871.27V1945.38" stroke="#00573C" stroke-width="33.1687" stroke-miterlimit="10"/>
<path d="M1965.19 2080.8V2168H1986.99V1960.9H1877.99L1812.59 2080.8L1683.97 2146.2V2168H1877.99L1965.19 2080.8Z" stroke="#FFCC00" stroke-width="33.1687" stroke-miterlimit="10"/>
<path d="M2326.12 1871.27V1945.38" stroke="#00573C" stroke-width="33.1687" stroke-miterlimit="10"/>
<path d="M2224.59 1193.55V1939.1" stroke="#00573C" stroke-width="33.1687" stroke-miterlimit="10"/>
<path d="M2246.39 2080.8V2168H2224.59V1960.9H2331.41L2396.81 2080.8L2527.61 2146.2V2168H2331.41L2246.39 2080.8Z" stroke="#FFCC00" stroke-width="33.1687" stroke-miterlimit="10"/>
<path d="M1900.9 811.858L2041.47 999.534H2061.09L2104.69 934.135H2106.87L2148.29 999.534H2170.09L2344.03 815.838" stroke="#FFCC00" stroke-width="33.1687" stroke-miterlimit="10"/>
<path d="M1867.99 1711.2L1791.7 1689.4V1580.4H1726.3V1181.47C1726.3 1150.95 1730.66 1111.71 1743.74 1065.93C1756.82 1020.15 1918.14 891.561 1933.4 867.582" stroke="#00573C" stroke-width="33.1687" stroke-miterlimit="10"/>
<path d="M2299.59 873.552L2244.21 1043.14C2231.13 1084.56 2224.59 1128.15 2224.59 1171.75V1202.27" stroke="#00573C" stroke-width="33.1687" stroke-miterlimit="10"/>
<path d="M1986.98 1193.55V1939.1" stroke="#00573C" stroke-width="33.1687" stroke-miterlimit="10"/>
<path d="M1918.81 888.809L1967.36 1043.14C1980.44 1084.56 1986.98 1128.15 1986.98 1171.75V1202.27" stroke="#00573C" stroke-width="33.1687" stroke-miterlimit="10"/>
<path d="M1986.98 1810.49H2224.6" stroke="#00573C" stroke-width="33.1687" stroke-miterlimit="10"/>
<path d="M1986.98 1649.17H2235.5" stroke="#00573C" stroke-width="33.1687" stroke-miterlimit="10"/>
<path d="M2221.97 815.175C2296.09 815.175 2558.13 809.875 2632.25 809.875C2632.25 868.735 2632.25 945.034 2632.25 1003.89C2558.13 1003.89 2334.56 1001.71 2260.44 1003.89" stroke="#00573C" stroke-width="33.1687" stroke-miterlimit="10"/>
<path d="M2721.63 986.454V1664.42" stroke="#00573C" stroke-width="33.1687" stroke-miterlimit="10"/>
<path d="M2721.63 513.404L2721.97 817" stroke="#00573C" stroke-width="33.1687" stroke-miterlimit="10"/>
<path d="M2688.93 820.78L2638.79 851.299V962.478L2756.51 986.457L2795.75 951.578L2806.65 899.259L2763.05 892.719L2773.95 838.22L2688.93 820.78Z" fill="#121212" stroke="white" stroke-width="33.1687" stroke-miterlimit="10"/>
<path d="M2721.63 1664.43C2721.63 1832.28 2721.63 1997.96 2721.63 2165.82M2721.63 2165.82C2684.57 2165.82 2645.33 2165.82 2608.27 2165.82C2608.27 2161.46 2608.27 2159.28 2608.27 2157.1C2645.33 1993.6 2684.57 1827.92 2721.63 1664.43C2758.69 1830.1 2797.93 1993.6 2837.17 2159.28C2837.17 2161.46 2837.17 2163.64 2837.17 2165.82C2797.93 2165.82 2760.87 2165.82 2721.63 2165.82Z" stroke="#00573C" stroke-width="33.1687" stroke-miterlimit="10"/>
<path d="M1786.42 1594.67H1854" stroke="#00573C" stroke-width="33.1687" stroke-miterlimit="10"/>
<path d="M2263.81 500.944H1946.06C1916.81 500.944 1893.1 524.655 1893.1 553.904V765.741C1893.1 794.99 1916.81 818.7 1946.06 818.7H2263.81C2293.06 818.7 2316.77 794.99 2316.77 765.741V553.904C2316.77 524.655 2293.06 500.944 2263.81 500.944Z" stroke="#00573C" stroke-width="52.9593" stroke-linecap="round" stroke-linejoin="round"/>
<path d="M1840.14 659.822H1893.1" stroke="#00573C" stroke-width="52.9593" stroke-linecap="round" stroke-linejoin="round"/>
<path d="M2316.78 659.822H2369.74" stroke="#00573C" stroke-width="52.9593" stroke-linecap="round" stroke-linejoin="round"/>
<path d="M2184.38 633.346V686.306" stroke="#00573C" stroke-width="52.9593" stroke-linecap="round" stroke-linejoin="round"/>
<path d="M2025.5 633.346V686.306" stroke="#00573C" stroke-width="52.9593" stroke-linecap="round" stroke-linejoin="round"/>
<path d="M2290.3 500.939L2234.43 324.664C2231.98 317.624 2228.08 311.18 2222.97 305.752C2217.86 300.325 2211.67 296.036 2204.79 293.167C2197.91 290.297 2190.51 288.912 2183.06 289.102C2175.61 289.291 2168.28 291.051 2161.56 294.265L2127.77 310.418C2120.64 313.82 2112.84 315.584 2104.94 315.582H2012.26C2000.73 315.579 1989.51 319.344 1980.3 326.303C1971.1 333.262 1964.43 343.035 1961.29 354.136L1919.58 500.939" stroke="#00573C" stroke-width="52.9593" stroke-linecap="round" stroke-linejoin="round"/>
<path d="M1840.14 500.944H2369.74" stroke="#00573C" stroke-width="52.9593" stroke-linecap="round" stroke-linejoin="round"/>
<g filter="url(#filter1_d_1284_388)">
<path d="M1893.65 430.405L1895.99 436.109L1899.25 442.994L1898.53 446.718L1898.39 449.947L1898.99 453.972L1900.7 458.059L1902.7 460.205L1904.58 461.666L1906.28 462.364L1907.56 459.801L1908.22 457.128L1908.06 453.957L1907.27 450.675L1905.49 447.261L1903.13 444.342L1900.69 442.473L1899.17 439.526L1897.8 437.114L1895.76 433.611L1893.65 430.405Z" fill="#FFCC00"/>
<path d="M1884.93 419.912L1886.47 425.855L1888.76 433.065L1887.55 436.757L1886.99 440L1887.05 444.106L1888.18 448.367L1889.85 450.695L1891.51 452.326L1893.08 453.171L1894.68 450.695L1895.68 448.056L1895.94 444.847L1895.61 441.475L1894.32 437.887L1892.38 434.747L1890.24 432.66L1889.14 429.563L1888.11 427.019L1886.58 423.319L1884.93 419.912Z" fill="#FFCC00"/>
<path d="M1877.81 408.886L1878.39 415.025L1879.51 422.515L1877.76 426.118L1876.71 429.332L1876.13 433.476L1876.58 437.88L1877.85 440.39L1879.22 442.194L1880.62 443.199L1882.57 440.86L1883.95 438.297L1884.71 435.089L1884.91 431.658L1884.2 427.916L1882.79 424.563L1881.02 422.25L1880.43 419.023L1879.82 416.358L1878.89 412.48L1877.81 408.886Z" fill="#FFCC00"/>
<path d="M1870.3 398.194L1870.61 404.372L1871.39 411.922L1869.49 415.49L1868.3 418.686L1867.54 422.829L1867.79 427.263L1868.95 429.818L1870.22 431.667L1871.58 432.715L1873.62 430.421L1875.11 427.887L1876 424.688L1876.35 421.249L1875.81 417.473L1874.57 414.069L1872.9 411.698L1872.46 408.442L1871.97 405.75L1871.22 401.831L1870.3 398.194Z" fill="#FFCC00"/>
<path d="M1942.56 479.771L1945.1 480.065L1939.61 478.475L1933.15 476.228L1927.47 474.251L1921.46 471.728L1916.66 469.575L1910.94 466.617L1904.96 463.192L1899.68 459.958L1894.32 456.268L1889.67 452.767L1885.05 449.118L1882.91 447.19L1880.13 444.775L1873.96 438.328L1870.74 434.683L1867.74 430.9L1864.75 426.74L1862.45 423.147L1862.96 422.197L1863.95 418.563L1863.71 415.313L1862.34 411.771L1861.08 409.667L1858.72 407.501L1855.72 405.224L1854.27 400.474L1853.15 395.893L1852.43 390.808L1852.6 395.862L1853.09 400.708L1854.21 405.666L1852.75 408.218L1852.39 410.08L1852.95 413.5L1855.25 418.599L1858.39 422.542L1860.68 423.875L1862.09 427.268L1860.69 426.135L1858.92 425.357L1855.93 424.21L1852.54 423.566L1848.11 422.94L1844.56 419.126L1840.86 414.399L1843.31 418.528L1846.53 423.303L1847.98 426.17L1850.49 429.249L1853.38 431.595L1857.03 433.834L1860.28 435.071L1863.89 435.576L1867.32 435.694L1869.28 438.742L1865.26 437.611L1861.65 437.106L1857.45 437.095L1854.79 436.87L1850.29 433.529L1846.26 430.139L1847.78 431.956L1851.21 435.463L1855.06 438.842L1856.76 441.423L1860.05 444.018L1862.78 445.452L1867.68 446.783L1871.96 447.25L1876.68 447.065L1879.97 450.413L1875.76 449.649L1872.45 449.461L1868.06 449.816L1865.26 450.185L1862.86 448.921L1859.91 447.248L1854.96 444.183L1859.03 447.801L1861.47 449.67L1864.53 451.273L1865.86 452.704L1868.85 455.357L1872.58 456.923L1878.08 458.137L1882.87 458.407L1887.07 458.042L1889.35 457.493L1893.3 460.05L1889.5 459.534L1886.96 459.617L1884.09 459.906L1881.03 460.562L1877.83 461.436L1874.91 460.368L1872.7 459.49L1869.67 458.114L1864.58 455.643L1868.5 458.349L1871.93 460.35L1874.29 461.386L1877.61 462.703L1878.79 463.598L1880.68 465.06L1882.78 466.007L1885.73 466.926L1889.68 467.601L1895.39 467.546L1899.11 466.853L1903.01 465.793L1908.88 468.91L1918.33 473.057L1923.2 474.913L1929.69 477.012L1933.45 478.052L1936.22 478.585L1938.61 479.096L1940.57 479.508L1942.56 479.771Z" fill="#FFCC00"/>
<path d="M1934.65 427.43L1932.29 431.191L1929.61 435.89L1927.17 437.529L1925.26 439.128L1923.18 441.402L1921.5 444.108L1921.05 445.927L1920.95 447.356L1921.22 448.328L1923.21 447.484L1925.01 446.356L1926.78 444.679L1928.36 442.719L1929.62 440.331L1930.37 437.982L1930.48 436.144L1931.58 434.088L1932.42 432.36L1933.64 429.833L1934.65 427.43Z" fill="#FFCC00"/>
<path d="M1937.24 418.914L1934.43 422.506L1931.18 427.018L1928.57 428.466L1926.47 429.917L1924.13 432.034L1922.12 434.621L1921.44 436.417L1921.16 437.849L1921.29 438.851L1923.35 438.166L1925.27 437.18L1927.23 435.638L1929.04 433.795L1930.6 431.494L1931.64 429.189L1932 427.346L1933.35 425.366L1934.41 423.696L1935.93 421.25L1937.24 418.914Z" fill="#FFCC00"/>
<path d="M1940.78 410.703L1937.47 414.049L1933.59 418.279L1930.82 419.484L1928.55 420.744L1925.93 422.649L1923.56 425.06L1922.62 426.804L1922.12 428.22L1922.1 429.243L1924.22 428.753L1926.25 427.946L1928.4 426.583L1930.46 424.902L1932.33 422.735L1933.71 420.513L1934.34 418.69L1935.97 416.826L1937.26 415.245L1939.13 412.929L1940.78 410.703Z" fill="#FFCC00"/>
<path d="M1943.97 402.524L1940.53 405.79L1936.48 409.928L1933.67 411.061L1931.35 412.262L1928.66 414.101L1926.2 416.455L1925.19 418.18L1924.63 419.587L1924.56 420.613L1926.69 420.181L1928.75 419.427L1930.95 418.119L1933.07 416.489L1935.03 414.366L1936.5 412.174L1937.21 410.362L1938.91 408.536L1940.27 406.986L1942.23 404.713L1943.97 402.524Z" fill="#FFCC00"/>
<path d="M1925.57 470.365L1926.41 471.437L1925.15 468.633L1923.88 465.146L1922.77 462.078L1921.84 458.61L1921.18 455.772L1920.62 452.188L1920.22 448.271L1919.99 444.706L1919.99 440.881L1920.17 437.407L1920.44 433.87L1920.7 432.108L1921 429.871L1922.27 424.341L1923.09 421.313L1924.09 418.295L1925.3 415.084L1926.46 412.418L1927.21 412.118L1929.69 410.619L1931.48 408.875L1932.97 406.569L1933.69 405.038L1934 403.074L1934.13 400.827L1936.29 397.875L1938.49 395.13L1941.14 392.274L1938.29 394.914L1935.69 397.568L1933.27 400.506L1931.22 401.278L1930 402.097L1928.25 404.048L1926.22 407.486L1925.2 410.639L1925.34 412.149L1923.94 414.393L1924.04 413.306L1923.78 412.267L1923.26 410.597L1922.28 409.04L1920.89 407.117L1921.68 403.882L1922.94 400.128L1921.53 403.122L1920.05 406.728L1918.97 408.716L1918.19 411.2L1917.98 413.442L1918.14 415.91L1918.72 417.719L1919.86 419.286L1921.15 420.589L1920.17 422.856L1919.23 420.822L1918.09 419.255L1916.43 417.726L1915.5 416.65L1915.64 413.31L1916 410.12L1915.55 411.597L1914.9 414.634L1914.47 417.753L1913.66 419.688L1913.47 422.205L1913.72 423.927L1914.9 426.384L1916.33 428.173L1918.3 429.787L1917.68 432.689L1916.45 430.776L1915.24 429.478L1913.3 428.07L1911.98 427.244L1911.76 425.729L1911.55 423.804L1911.35 420.446L1910.88 423.766L1910.77 425.605L1911.06 427.534L1910.76 428.747L1910.42 431.186L1910.99 433.337L1912.47 435.948L1914.22 437.822L1916.09 439.158L1917.32 439.705L1917.41 442.443L1916.2 440.803L1915.14 439.924L1913.84 439.03L1912.25 438.258L1910.47 437.543L1909.93 435.941L1909.56 434.69L1909.15 432.891L1908.56 429.784L1908.55 432.584L1908.76 434.85L1909.1 436.235L1909.65 438.111L1909.61 438.997L1909.51 440.426L1909.8 441.672L1910.44 443.211L1911.62 444.985L1913.91 447.027L1915.79 448.021L1917.95 448.895L1918.48 452.613L1919.83 458.155L1920.69 460.868L1922.06 464.292L1922.95 466.187L1923.74 467.461L1924.4 468.591L1924.93 469.509L1925.57 470.365Z" fill="#FFCC00"/>
</g>
</g>
<defs>
<filter id="filter0_d_1284_388" x="1417.39" y="0" width="1686.37" height="2438.58" filterUnits="userSpaceOnUse" color-interpolation-filters="sRGB">
<feFlood flood-opacity="0" result="BackgroundImageFix"/>
<feColorMatrix in="SourceAlpha" type="matrix" values="0 0 0 0 0 0 0 0 0 0 0 0 0 0 0 0 0 0 127 0" result="hardAlpha"/>
<feOffset dy="4"/>
<feGaussianBlur stdDeviation="125"/>
<feComposite in2="hardAlpha" operator="out"/>
<feColorMatrix type="matrix" values="0 0 0 0 0 0 0 0 0 0 0 0 0 0 0 0 0 0 0.38 0"/>
<feBlend mode="normal" in2="BackgroundImageFix" result="effect1_dropShadow_1284_388"/>
<feBlend mode="normal" in="SourceGraphic" in2="effect1_dropShadow_1284_388" result="shape"/>
</filter>
<filter id="filter1_d_1284_388" x="1835.7" y="385.647" width="114.56" height="99.5792" filterUnits="userSpaceOnUse" color-interpolation-filters="sRGB">
<feFlood flood-opacity="0" result="BackgroundImageFix"/>
<feColorMatrix in="SourceAlpha" type="matrix" values="0 0 0 0 0 0 0 0 0 0 0 0 0 0 0 0 0 0 127 0" result="hardAlpha"/>
<feOffset/>
<feGaussianBlur stdDeviation="2.58052"/>
<feComposite in2="hardAlpha" operator="out"/>
<feColorMatrix type="matrix" values="0 0 0 0 0 0 0 0 0 0 0 0 0 0 0 0 0 0 0.35 0"/>
<feBlend mode="normal" in2="BackgroundImageFix" result="effect1_dropShadow_1284_388"/>
<feBlend mode="normal" in="SourceGraphic" in2="effect1_dropShadow_1284_388" result="shape"/>
</filter>
<clipPath id="clip0_1284_388">
<rect width="4515.68" height="1922.06" fill="white" transform="translate(0 245.654)"/>
</clipPath>
</defs>
</svg>
