<svg xmlns="http://www.w3.org/2000/svg" viewBox="0 0 576 512">
  <path fill="#3DDC84" d="M420.22 82.57l29.41-50.93a11.08 11.08 0 00-4.06-15.11 11.23 11.23 0 00-15.22 4.02l-30 52A271.86 271.86 0 00288 32c-56 0-108 17.41-150.35 40.55l-30-52a11.23 11.23 0 00-15.22-4.02 11.08 11.08 0 00-4.06 15.11l29.41 50.93C52.68 123.63 0 206 0 300.91v27.33h576v-27.33c0-94.88-52.68-177.25-155.78-218.34zM161.82 233.15c-15.29 0-27.69-12.28-27.69-27.42s12.4-27.42 27.69-27.42 27.69 12.28 27.69 27.42-12.4 27.42-27.69 27.42zm252.36 0c-15.29 0-27.69-12.28-27.69-27.42s12.4-27.42 27.69-27.42 27.69 12.28 27.69 27.42-12.4 27.42-27.69 27.42z"/>
</svg>