<svg width="899" height="1058" viewBox="0 0 899 1058" fill="none" xmlns="http://www.w3.org/2000/svg">
<path d="M464.328 431.768L470.728 483.394L481.525 546.617L469.994 575.71L463.422 601.951L460.626 636.232L465.432 673.289L475.627 694.995L486.225 710.855L496.848 720.062L510.242 701.641L519.458 681.027L523.873 654.664L524.109 626.109L517.633 594.437L506.196 565.617L492.443 545.275L486.965 517.964L481.595 495.355L473.474 462.416L464.328 431.768Z" fill="#FFCC00"/>
<path d="M421.781 327.768L422.176 379.716L425.601 443.612L410.768 471.456L401.197 496.933L394.451 530.762L394.946 568.07L402.574 590.621L411.28 607.394L420.78 617.555L436.231 600.5L447.78 580.87L455.22 555.068L458.758 526.692L455.98 494.582L447.939 464.839L436.614 443.309L434.325 415.63L431.599 392.638L427.332 359.112L421.781 327.768Z" fill="#FFCC00"/>
<path d="M391.305 222.646L384.691 274.25L379.475 338.048L360.998 364.05L348.063 388.283L336.806 421.117L332.266 458.201L336.796 481.424L343.175 499.031L351.235 510.163L368.871 494.936L382.981 476.725L393.844 451.935L401.182 424.16L402.754 391.983L398.785 361.576L390.447 338.96L391.907 311.235L392.302 288.114L392.587 254.368L391.305 222.646Z" fill="#FFCC00"/>
<path d="M357.553 119.485L348.95 170.85L341.274 234.444L321.804 259.848L307.941 283.658L295.423 316.117L289.454 353.035L293.085 376.387L298.78 394.185L306.405 405.564L324.618 390.903L339.422 373.147L351.237 348.715L359.643 321.189L362.457 289.081L359.663 258.567L352.204 235.702L354.734 208.039L356.022 184.945L357.61 151.229L357.553 119.485Z" fill="#FFCC00"/>
<path d="M719.595 937.277L736.822 944.9L701.26 920.591L660.142 888.925L623.958 861.059L586.398 828.028L556.685 800.526L521.928 764.522L486.173 724.157L454.974 686.788L424.044 645.521L397.671 607.25L371.81 567.833L360.214 547.613L345.085 522.106L313.233 456.524L297.131 420.005L282.808 382.803L269.132 342.508L259.365 308.302L264.594 301.552L277.77 273.726L281.808 246.56L278.377 214.668L273.251 194.812L260.522 172.18L243.614 147.356L241.745 105.377L241.898 65.4682L245.743 22.2456L238.096 64.0802L233.118 104.891L232.319 147.894L217.657 165.853L211.892 180.399L209.876 209.636L217.057 256.219L232.135 295.029L245.779 310.668L249.722 341.415L241.901 329.234L230.9 319.222L212.053 303.681L189.514 291.455L159.749 277.256L141.625 238.666L124.038 192.28L133.913 231.188L148.076 276.99L153.177 303.497L165.369 333.926L181.387 359.091L202.986 384.962L223.478 401.769L247.796 413.314L271.494 421.301L279.885 450.341L253.812 432.828L229.494 421.284L200.215 412.591L182.098 405.309L156.48 368.646L134.286 332.567L141.703 350.595L159.584 386.431L180.511 422.048L187.903 446.727L206.321 474.767L222.877 492.136L254.773 513.108L283.783 525.699L316.997 533.83L334.123 568.059L306.137 553.178L283.329 544.849L252.137 538.788L231.972 536.087L217.438 520.789L199.749 501.008L170.573 465.71L192.633 503.739L206.386 524.08L224.964 543.519L231.761 557.99L248.023 585.909L271.292 606.395L307.501 627.61L340.446 639.64L370.371 645.238L387.247 645.406L410.356 674.492L384.77 662.485L366.896 657.957L346.353 654.452L323.897 653.579L300.04 654.192L281.57 639.455L267.657 627.714L248.945 610.224L217.721 579.506L240.318 609.738L260.784 633.197L275.452 646.546L296.322 664.158L303.009 673.927L313.607 689.786L326.631 701.868L345.612 715.46L371.953 729.075L411.88 740.324L439.027 742.244L468.088 741.532L503.6 779.144L562.272 832.539L593.01 857.751L634.639 888.272L659.067 904.518L677.427 914.553L693.254 923.662L706.168 931.042L719.595 937.277Z" fill="#FFCC00"/>
<path d="M755.441 491.282L732.431 517.326L705.595 550.434L685.761 558.904L669.608 568.114L651.132 582.518L634.713 601.3L628.442 615.327L625.289 626.866L625.487 635.399L640.81 632.534L655.337 626.96L670.572 616.811L685.013 603.955L697.972 586.931L707.25 569.168L711.221 554.301L722.445 539.666L731.357 527.208L744.206 508.935L755.441 491.282Z" fill="#FFCC00"/>
<path d="M788.342 426.658L762.446 450.386L731.927 480.777L711.222 487.327L694.092 494.96L674.052 507.54L655.55 524.668L647.691 538.026L643.221 549.204L642.431 557.709L658.001 556.306L673.093 552.136L689.419 543.482L705.267 532.06L720.125 516.354L731.407 499.565L737.076 485.155L749.93 471.659L760.235 460.112L775.127 443.153L788.342 426.658Z" fill="#FFCC00"/>
<path d="M827.285 366.478L798.382 387.176L763.994 413.979L742.56 418.199L724.528 423.889L702.941 434.169L682.267 449.13L672.666 461.523L666.722 472.126L664.791 480.48L680.434 480.803L695.976 478.326L713.347 471.535L730.617 461.943L747.482 447.991L760.943 432.569L768.513 418.891L783.092 406.912L794.877 396.586L811.944 381.394L827.285 366.478Z" fill="#FFCC00"/>
<path d="M863.748 305.839L834.064 325.613L798.661 351.315L777.077 354.857L758.837 359.974L736.866 369.567L715.627 383.867L705.553 395.95L699.203 406.358L696.95 414.647L712.571 415.463L728.2 413.478L745.823 407.239L763.453 398.198L780.845 384.786L794.894 369.798L802.988 356.367L818.02 344.855L830.197 334.907L847.841 320.262L863.748 305.839Z" fill="#FFCC00"/>
<path d="M617.505 825.264L621.494 835.786L617.563 810.177L614.805 778.954L612.377 751.478L611.918 721.094L612.243 696.435L614.548 665.852L618.588 632.881L623.192 603.138L629.875 571.736L637.121 543.561L645.174 515.077L650.063 501.15L656.002 483.376L674.471 440.566L685.497 417.398L697.673 394.649L711.695 370.762L724.433 351.241L730.193 350.322L750.138 343.101L765.606 332.433L780.057 316.558L787.698 305.449L793.284 289.963L798.074 271.77L818.297 251.96L838.398 233.918L861.838 215.887L837.37 231.73L814.627 248.203L792.68 267.383L777.014 269.519L767.097 273.754L751.507 286.191L731.383 310.267L718.743 334.055L717.083 346.743L703.438 362.308L706.004 353.576L706.039 344.524L705.29 329.747L701.202 314.959L694.826 296.314L705.974 271.377L721.279 243.124L706.23 264.823L689.665 291.408L678.673 305.524L668.931 324.326L663.566 342.31L660.379 362.901L661.238 378.928L666.476 394.135L673.217 407.475L662.446 424.089L659.409 405.454L654.172 390.247L645.253 374.299L640.689 363.568L647.471 336.433L655.512 310.966L649.828 322.185L639.952 345.773L631.568 370.511L622.533 384.737L616.814 405.009L615.607 419.676L619.55 442.267L626.39 459.873L637.376 477.179L627.964 499.728L622.738 481.503L616.571 468.374L605.464 452.836L597.672 443.343L598.757 430.444L600.661 414.219L605.144 386.243L596.063 412.539L592.092 427.406L590.762 443.841L586.582 453.193L579.945 472.525L580.219 491.359L585.996 515.828L594.903 534.793L605.668 549.602L613.24 556.597L609.123 579.267L603.543 563.33L597.708 553.947L590.148 543.935L580.399 534.332L569.268 524.828L568.287 510.57L567.869 499.54L568.159 483.934L569.413 457.197L564.489 480.176L561.998 499.209L561.952 511.279L562.579 527.825L560.71 534.998L557.557 546.538L557.401 557.358L559.189 571.306L564.305 588.282L576.771 609.756L588.123 621.757L601.663 633.349L598.894 664.971L598.709 713.249L599.998 737.288L603.564 768.202L606.49 785.587L609.782 797.667L612.39 808.288L614.544 816.931L617.505 825.264Z" fill="#FFCC00"/>
</svg>
