<svg width="1440" height="2671" viewBox="0 0 1440 2671" fill="none" xmlns="http://www.w3.org/2000/svg">
<g clip-path="url(#clip0_2308_771)">
<rect width="1440" height="2671" fill="white"/>
<g opacity="0.3">
<path d="M366.527 2067.22L374.158 2084.66L384.386 2105.51L384.165 2117.87L385.109 2128.38L388.072 2141.14L393.612 2153.61L399.062 2159.68L403.984 2163.59L408.176 2165.11L410.136 2156.26L410.604 2147.32L409.003 2137.13L405.91 2126.86L400.467 2116.59L393.859 2108.18L387.498 2103.19L382.836 2094.32L378.728 2087.12L372.654 2076.68L366.527 2067.22Z" fill="#FFCC00"/>
<path d="M342.301 2037.08L348.173 2055.63L356.275 2077.96L354.929 2090.43L354.893 2101.17L356.626 2114.43L360.907 2127.72L365.683 2134.52L370.141 2139.07L374.104 2141.12L376.829 2132.41L378.104 2123.44L377.468 2112.94L375.381 2102.18L370.994 2091.13L365.297 2081.82L359.53 2076L355.78 2066.47L352.419 2058.68L347.431 2047.38L342.301 2037.08Z" fill="#FFCC00"/>
<path d="M321.555 2004.54L325.296 2024.14L330.806 2047.89L328.168 2060.31L326.99 2071.16L327.265 2084.82L330.017 2098.88L333.943 2106.44L337.799 2111.68L341.439 2114.32L345.019 2105.9L347.215 2097.01L347.714 2086.3L346.828 2075.11L343.733 2063.31L339.179 2053.08L334.184 2046.37L331.548 2036.19L329.105 2027.84L325.452 2015.69L321.555 2004.54Z" fill="#FFCC00"/>
<path d="M300.051 1973.2L303.172 1993.06L307.924 2017.14L304.924 2029.51L303.421 2040.38L303.278 2054.11L305.585 2068.35L309.257 2076.11L312.929 2081.53L316.467 2084.33L320.282 2076.02L322.736 2067.17L323.558 2056.43L323.019 2045.16L320.303 2033.17L316.088 2022.7L311.328 2015.76L309.019 2005.42L306.845 1996.93L303.584 1984.57L300.051 1973.2Z" fill="#FFCC00"/>
<path d="M498.772 2205.61L504.762 2205.46L491.448 2202.71L475.66 2198.26L461.767 2194.34L446.89 2188.8L434.97 2183.92L420.601 2176.85L405.451 2168.38L391.994 2160.22L378.185 2150.61L366.069 2141.32L353.979 2131.53L348.276 2126.23L340.932 2119.62L324.154 2101.46L315.3 2091.07L306.901 2080.13L298.353 2067.98L291.647 2057.36L292.461 2054.06L293.313 2041.88L291.51 2031.46L286.952 2020.61L283.222 2014.35L276.913 2008.37L269.113 2002.31L263.905 1987.58L259.529 1973.25L255.89 1957.11L258.24 1973.39L261.274 1988.85L265.8 2004.4L263.41 2013.3L263.3 2019.48L265.937 2030.3L273.242 2045.79L282.044 2057.17L287.851 2060.49L292.435 2070.85L288.75 2067.79L284.356 2066.05L277.005 2063.64L268.919 2063.04L258.457 2062.94L248.769 2052.15L238.379 2038.47L245.638 2050.76L254.942 2064.81L259.401 2073.45L266.413 2082.31L273.985 2088.65L283.301 2094.3L291.283 2096.88L299.825 2096.94L307.787 2095.83L313.51 2104.83L303.783 2102.93L295.242 2102.87L285.535 2104.67L279.317 2105.1L267.605 2096.25L256.98 2087.04L261.192 2092.26L270.502 2102.11L280.698 2111.36L285.639 2118.97L294.246 2125.93L301.115 2129.38L312.964 2131.54L323.022 2131.19L333.842 2128.53L342.749 2137.93L332.742 2137.29L325.008 2138.13L315.021 2141.19L308.7 2143.61L302.664 2140.56L295.19 2136.44L282.567 2128.68L293.368 2138.61L299.728 2143.6L307.43 2147.45L311.063 2151.49L319.012 2158.77L328.231 2162.21L341.395 2163.74L352.567 2162.53L362.124 2159.52L367.183 2156.74L377.307 2163.29L368.335 2163.28L362.495 2164.66L355.972 2166.85L349.169 2170.3L342.112 2174.52L334.963 2172.34L329.507 2170.46L321.981 2167.33L309.253 2161.56L319.351 2168.61L328.062 2173.58L333.922 2175.91L342.105 2178.72L345.185 2181.1L350.107 2185.01L355.335 2187.15L362.509 2188.84L371.884 2189.3L385.054 2186.64L393.375 2182.77L401.975 2177.64L416.747 2185.16L440.185 2194.46L452.157 2198.34L467.971 2202.3L477.066 2204.03L483.661 2204.54L489.397 2205.15L494.071 2205.63L498.772 2205.61Z" fill="#FFCC00"/>
</g>
<g opacity="0.3">
<path d="M358.527 1225.22L366.158 1242.66L376.386 1263.51L376.165 1275.87L377.109 1286.38L380.072 1299.14L385.612 1311.61L391.062 1317.68L395.984 1321.59L400.176 1323.11L402.136 1314.26L402.604 1305.32L401.003 1295.13L397.91 1284.86L392.467 1274.59L385.859 1266.18L379.498 1261.19L374.836 1252.32L370.728 1245.12L364.654 1234.68L358.527 1225.22Z" fill="#FFCC00"/>
<path d="M334.301 1195.08L340.173 1213.63L348.275 1235.96L346.929 1248.43L346.893 1259.17L348.626 1272.43L352.907 1285.72L357.683 1292.52L362.141 1297.07L366.104 1299.12L368.829 1290.41L370.104 1281.44L369.468 1270.94L367.381 1260.18L362.994 1249.13L357.297 1239.82L351.53 1234L347.78 1224.47L344.419 1216.68L339.431 1205.38L334.301 1195.08Z" fill="#FFCC00"/>
<path d="M313.551 1162.54L317.292 1182.14L322.802 1205.89L320.164 1218.31L318.986 1229.16L319.261 1242.82L322.013 1256.88L325.939 1264.44L329.795 1269.68L333.435 1272.32L337.015 1263.9L339.211 1255.01L339.71 1244.3L338.824 1233.11L335.729 1221.31L331.175 1211.08L326.18 1204.37L323.544 1194.19L321.101 1185.84L317.448 1173.69L313.551 1162.54Z" fill="#FFCC00"/>
<path d="M292.047 1131.2L295.168 1151.06L299.92 1175.14L296.92 1187.51L295.417 1198.38L295.274 1212.11L297.581 1226.35L301.253 1234.11L304.925 1239.53L308.463 1242.33L312.278 1234.02L314.733 1225.17L315.554 1214.43L315.015 1203.16L312.299 1191.17L308.084 1180.7L303.324 1173.76L301.015 1163.42L298.841 1154.93L295.58 1142.57L292.047 1131.2Z" fill="#FFCC00"/>
<path d="M490.768 1363.62L496.758 1363.46L483.444 1360.71L467.656 1356.26L453.763 1352.34L438.886 1346.8L426.966 1341.93L412.597 1334.85L397.447 1326.38L383.99 1318.22L370.181 1308.61L358.065 1299.32L345.975 1289.53L340.272 1284.23L332.928 1277.62L316.15 1259.46L307.296 1249.07L298.897 1238.13L290.349 1225.98L283.643 1215.36L284.457 1212.07L285.309 1199.88L283.506 1189.46L278.948 1178.61L275.218 1172.35L268.909 1166.37L261.109 1160.31L255.901 1145.58L251.525 1131.25L247.886 1115.11L250.236 1131.39L253.271 1146.85L257.796 1162.4L255.407 1171.3L255.296 1177.48L257.933 1188.3L265.238 1203.79L274.04 1215.17L279.848 1218.49L284.431 1228.85L280.746 1225.79L276.352 1224.05L269.001 1221.64L260.915 1221.04L250.453 1220.94L240.766 1210.15L230.375 1196.47L237.634 1208.76L246.938 1222.81L251.397 1231.45L258.409 1240.31L265.981 1246.65L275.298 1252.3L283.279 1254.89L291.821 1254.94L299.783 1253.83L305.506 1262.83L295.779 1260.93L287.238 1260.87L277.531 1262.67L271.313 1263.1L259.601 1254.25L248.976 1245.04L253.188 1250.26L262.498 1260.11L272.694 1269.36L277.635 1276.97L286.242 1283.93L293.111 1287.38L304.96 1289.55L315.018 1289.19L325.839 1286.54L334.745 1295.93L324.738 1295.29L317.004 1296.13L307.017 1299.19L300.696 1301.61L294.661 1298.56L287.186 1294.44L274.563 1286.68L285.364 1296.61L291.724 1301.6L299.426 1305.45L303.059 1309.49L311.009 1316.77L320.227 1320.21L333.391 1321.74L344.563 1320.53L354.12 1317.52L359.179 1314.75L369.303 1321.3L360.331 1321.28L354.492 1322.66L347.968 1324.85L341.165 1328.3L334.108 1332.52L326.959 1330.34L321.504 1328.47L313.977 1325.34L301.249 1319.56L311.347 1326.61L320.058 1331.58L325.918 1333.91L334.101 1336.72L337.181 1339.1L342.103 1343.01L347.331 1345.15L354.505 1346.84L363.88 1347.3L377.051 1344.64L385.371 1340.77L393.971 1335.64L408.743 1343.17L432.181 1352.46L444.153 1356.34L459.967 1360.3L469.062 1362.03L475.657 1362.54L481.393 1363.15L486.068 1363.63L490.768 1363.62Z" fill="#FFCC00"/>
</g>
<g opacity="0.3">
<path d="M358.527 413.224L366.158 430.656L376.386 451.507L376.165 463.87L377.109 474.379L380.072 487.136L385.612 499.613L391.062 505.684L395.984 509.591L400.176 511.109L402.136 502.259L402.604 493.324L401.003 483.133L397.91 472.858L392.467 462.591L385.859 454.179L379.498 449.195L374.836 440.324L370.728 433.12L364.654 422.676L358.527 413.224Z" fill="#FFCC00"/>
<path d="M334.301 383.076L340.173 401.631L348.275 423.961L346.929 436.43L346.893 447.168L348.626 460.425L352.907 473.716L357.683 480.52L362.141 485.072L366.104 487.12L368.829 478.415L370.104 469.441L369.468 458.944L367.381 448.179L362.994 437.135L357.297 427.822L351.53 422.004L347.78 412.467L344.419 404.682L339.431 393.381L334.301 383.076Z" fill="#FFCC00"/>
<path d="M313.551 350.535L317.292 370.143L322.802 393.886L320.164 406.307L318.986 417.163L319.261 430.821L322.013 444.876L325.939 452.44L329.795 457.681L333.435 460.319L337.015 451.903L339.211 443.008L339.71 432.299L338.824 421.112L335.729 409.314L331.175 399.081L326.18 392.373L323.544 382.189L321.101 373.835L317.448 361.691L313.551 350.535Z" fill="#FFCC00"/>
<path d="M292.047 319.204L295.168 339.059L299.92 363.143L296.92 375.515L295.417 386.375L295.274 400.11L297.581 414.345L301.253 422.107L304.925 427.531L308.463 430.331L312.278 422.02L314.733 413.172L315.554 402.433L315.015 391.155L312.299 379.174L308.084 368.705L303.324 361.76L301.015 351.42L298.841 342.925L295.58 330.573L292.047 319.204Z" fill="#FFCC00"/>
<path d="M490.768 551.615L496.758 551.458L483.444 548.71L467.656 544.257L453.763 540.338L438.886 534.799L426.966 529.925L412.597 522.85L397.447 514.379L383.99 506.218L370.181 496.614L358.065 487.32L345.975 477.529L340.272 472.226L332.928 465.621L316.15 447.456L307.296 437.067L298.897 426.134L290.349 413.984L283.643 403.362L284.457 400.065L285.309 387.88L283.506 377.465L278.948 366.608L275.218 360.351L268.909 354.374L261.109 348.312L255.901 333.578L251.525 319.247L247.886 303.108L250.236 319.387L253.271 334.851L257.796 350.399L255.407 359.296L255.296 365.478L257.933 376.296L265.238 391.79L274.04 403.172L279.848 406.489L284.431 416.849L280.746 413.794L276.352 412.051L269.001 409.642L260.915 409.041L250.453 408.944L240.766 398.152L230.375 384.475L237.634 396.765L246.938 410.807L251.397 419.453L258.409 428.315L265.981 434.648L275.298 440.299L283.279 442.886L291.821 442.944L299.783 441.832L305.506 450.834L295.779 448.93L287.238 448.872L277.531 450.667L271.313 451.096L259.601 442.252L248.976 433.042L253.188 438.26L262.498 448.106L272.694 457.363L277.635 464.969L286.242 471.93L293.111 475.379L304.96 477.546L315.018 477.193L325.839 474.536L334.745 483.932L324.738 483.292L317.004 484.133L307.017 487.193L300.696 489.608L294.661 486.562L287.186 482.439L274.563 474.681L285.364 484.612L291.724 489.596L299.426 493.448L303.059 497.495L311.009 504.774L320.227 508.214L333.391 509.744L344.563 508.53L354.12 505.516L359.179 502.746L369.303 509.295L360.331 509.283L354.492 510.658L347.968 512.848L341.165 516.303L334.108 520.525L326.959 518.34L321.504 516.466L313.977 513.335L301.249 507.563L311.347 514.609L320.058 519.584L325.918 521.909L334.101 524.721L337.181 527.1L342.103 531.007L347.331 533.154L354.505 534.841L363.88 535.303L377.051 532.637L385.371 528.771L393.971 523.641L408.743 531.166L432.181 540.463L444.153 544.344L459.967 548.301L469.062 550.027L475.657 550.544L481.393 551.154L486.068 551.633L490.768 551.615Z" fill="#FFCC00"/>
</g>
<g opacity="0.3">
<path d="M989.961 1657.54L980.329 1673.89L967.471 1693.5L967.483 1704.79L966.118 1714.45L962.254 1726.27L955.264 1737.97L948.518 1743.82L942.458 1747.66L937.333 1749.28L935.137 1741.29L934.753 1733.15L936.91 1723.75L940.881 1714.19L947.706 1704.51L955.908 1696.46L963.739 1691.56L969.586 1683.2L974.726 1676.39L982.322 1666.51L989.961 1657.54Z" fill="#FFCC00"/>
<path d="M1020.02 1628.66L1012.5 1645.94L1002.2 1666.79L1003.57 1678.11L1003.39 1687.92L1001.01 1700.14L995.535 1712.52L989.591 1719L984.081 1723.4L979.225 1725.49L976.095 1717.68L974.733 1709.55L975.724 1699.92L978.483 1689.97L984.041 1679.63L991.154 1670.81L998.281 1665.18L1003.03 1656.26L1007.28 1648.96L1013.57 1638.36L1020.02 1628.66Z" fill="#FFCC00"/>
<path d="M1045.9 1597.79L1040.95 1615.91L1033.76 1637.91L1036.71 1649.12L1037.91 1658.98L1037.29 1671.47L1033.66 1684.47L1028.73 1691.6L1023.94 1696.6L1019.46 1699.21L1015.29 1691.71L1012.81 1683.7L1012.42 1673.94L1013.73 1663.67L1017.74 1652.72L1023.48 1643.12L1029.69 1636.71L1033.1 1627.26L1036.24 1619.49L1040.93 1608.19L1045.9 1597.79Z" fill="#FFCC00"/>
<path d="M1072.67 1567.98L1068.47 1586.29L1062.19 1608.56L1065.58 1619.71L1067.18 1629.55L1067.07 1642.1L1063.97 1655.23L1059.35 1662.53L1054.78 1667.68L1050.42 1670.44L1045.96 1663.05L1043.16 1655.1L1042.39 1645.33L1043.28 1634.99L1046.82 1623.89L1052.16 1614.09L1058.09 1607.49L1061.11 1597.91L1063.93 1590.03L1068.14 1578.56L1072.67 1567.98Z" fill="#FFCC00"/>
<path d="M826.44 1791.25L819.167 1791.43L835.398 1788.19L854.669 1783.26L871.628 1778.92L889.815 1773.04L904.397 1767.94L921.999 1760.69L940.579 1752.12L957.096 1743.92L974.07 1734.39L988.982 1725.23L1003.87 1715.62L1010.91 1710.46L1019.97 1704.03L1040.73 1686.51L1051.7 1676.53L1062.13 1666.08L1072.77 1654.5L1081.13 1644.43L1080.21 1641.46L1079.43 1630.37L1081.84 1620.75L1087.6 1610.58L1092.26 1604.66L1100.05 1598.85L1109.65 1592.89L1116.28 1579.13L1121.9 1565.8L1126.65 1550.85L1123.46 1565.86L1119.45 1580.15L1113.63 1594.61L1116.35 1602.61L1116.36 1608.26L1112.93 1618.29L1103.73 1632.85L1092.8 1643.73L1085.68 1647.08L1079.9 1656.8L1084.44 1653.81L1089.81 1651.97L1098.79 1649.37L1108.62 1648.38L1121.34 1647.72L1133.33 1637.32L1146.23 1624.25L1137.16 1635.88L1125.57 1649.23L1119.97 1657.37L1111.27 1665.85L1101.94 1672.06L1090.5 1677.73L1080.75 1680.53L1070.38 1681.05L1060.73 1680.47L1053.59 1689.01L1065.44 1686.74L1075.82 1686.22L1087.58 1687.33L1095.12 1687.38L1109.53 1678.66L1122.63 1669.66L1117.4 1674.66L1105.89 1684.17L1093.31 1693.18L1087.15 1700.41L1076.55 1707.24L1068.14 1710.77L1053.7 1713.39L1041.49 1713.62L1028.4 1711.78L1017.38 1720.86L1029.55 1719.73L1038.93 1720.07L1051 1722.32L1058.63 1724.18L1066.02 1721.07L1075.19 1716.89L1090.68 1709.11L1077.36 1718.78L1069.52 1723.68L1060.09 1727.62L1055.59 1731.52L1045.78 1738.61L1034.51 1742.26L1018.49 1744.38L1004.94 1743.88L993.396 1741.65L987.309 1739.39L974.874 1745.93L985.773 1745.43L992.838 1746.37L1000.72 1748.01L1008.91 1750.79L1017.4 1754.27L1026.12 1751.88L1032.79 1749.87L1042 1746.6L1057.58 1740.62L1045.17 1747.62L1034.48 1752.64L1027.32 1755.08L1017.32 1758.1L1013.53 1760.45L1007.47 1764.29L1001.07 1766.53L992.32 1768.47L980.921 1769.4L964.977 1767.69L954.95 1764.61L944.61 1760.39L926.508 1768.07L897.843 1777.85L883.218 1782.06L863.926 1786.54L852.841 1788.61L844.819 1789.44L837.838 1790.32L832.15 1791.01L826.44 1791.25Z" fill="#FFCC00"/>
</g>
<g opacity="0.3">
<path d="M1014.96 870.538L1005.33 886.887L992.471 906.503L992.483 917.79L991.118 927.446L987.254 939.267L980.264 950.973L973.518 956.819L967.458 960.659L962.333 962.276L960.137 954.295L959.753 946.154L961.91 936.753L965.881 927.193L972.706 917.513L980.908 909.463L988.739 904.56L994.586 896.198L999.726 889.389L1007.32 879.512L1014.96 870.538Z" fill="#FFCC00"/>
<path d="M1045.02 841.66L1037.5 858.939L1027.2 879.79L1028.57 891.112L1028.39 900.924L1026.01 913.135L1020.53 925.516L1014.59 931.995L1009.08 936.399L1004.22 938.488L1001.09 930.681L999.733 922.549L1000.72 912.921L1003.48 902.968L1009.04 892.635L1016.15 883.812L1023.28 878.18L1028.03 869.258L1032.28 861.96L1038.57 851.358L1045.02 841.66Z" fill="#FFCC00"/>
<path d="M1070.9 810.785L1065.95 828.91L1058.76 850.911L1061.71 862.118L1062.91 871.975L1062.29 884.473L1058.66 897.468L1053.73 904.596L1048.94 909.597L1044.46 912.208L1040.29 904.711L1037.81 896.702L1037.42 886.942L1038.73 876.67L1042.74 865.718L1048.48 856.116L1054.69 849.712L1058.1 840.261L1061.24 832.493L1065.93 821.194L1070.9 810.785Z" fill="#FFCC00"/>
<path d="M1097.67 780.977L1093.47 799.293L1087.19 821.564L1090.58 832.707L1092.18 842.551L1092.07 855.096L1088.97 868.232L1084.35 875.526L1079.78 880.684L1075.42 883.436L1070.96 876.05L1068.16 868.097L1067.39 858.327L1068.28 847.991L1071.82 836.892L1077.16 827.094L1083.09 820.486L1086.11 810.91L1088.93 803.028L1093.14 791.56L1097.67 780.977Z" fill="#FFCC00"/>
<path d="M851.44 1004.25L844.167 1004.43L860.398 1001.19L879.669 996.261L896.628 991.92L914.815 986.043L929.397 980.937L946.999 973.685L965.579 965.115L982.096 956.92L999.07 947.388L1013.98 938.231L1028.87 928.622L1035.91 923.463L1044.97 917.025L1065.73 899.506L1076.7 889.527L1087.13 879.076L1097.77 867.504L1106.13 857.429L1105.21 854.461L1104.43 843.371L1106.84 833.754L1112.6 823.583L1117.26 817.66L1125.05 811.852L1134.65 805.885L1141.28 792.135L1146.9 778.798L1151.65 763.849L1148.46 778.855L1144.45 793.154L1138.63 807.612L1141.35 815.613L1141.36 821.256L1137.93 831.288L1128.73 845.847L1117.8 856.73L1110.68 860.08L1104.9 869.799L1109.44 866.806L1114.81 864.972L1123.79 862.368L1133.62 861.376L1146.34 860.716L1158.33 850.323L1171.23 837.255L1162.16 848.884L1150.57 862.226L1144.97 870.372L1136.27 878.855L1126.94 885.057L1115.5 890.731L1105.75 893.532L1095.38 894.052L1085.73 893.471L1078.59 902.011L1090.44 899.739L1100.82 899.219L1112.58 900.329L1120.12 900.381L1134.53 891.657L1147.63 882.659L1142.4 887.659L1130.89 897.166L1118.31 906.184L1112.15 913.406L1101.55 920.238L1093.14 923.766L1078.7 926.394L1066.49 926.621L1053.4 924.785L1042.38 933.86L1054.55 932.728L1063.93 933.073L1076 935.324L1083.63 937.185L1091.02 934.071L1100.19 929.894L1115.68 922.113L1102.36 931.78L1094.52 936.683L1085.09 940.625L1080.59 944.522L1070.78 951.61L1059.51 955.258L1043.49 957.376L1029.94 956.877L1018.4 954.646L1012.31 952.39L999.874 958.929L1010.77 958.428L1017.84 959.366L1025.72 961.01L1033.91 963.795L1042.4 967.268L1051.12 964.881L1057.79 962.869L1067 959.596L1082.58 953.624L1070.17 960.616L1059.48 965.64L1052.32 968.085L1042.32 971.102L1038.53 973.446L1032.47 977.285L1026.07 979.533L1017.32 981.468L1005.92 982.402L989.977 980.686L979.95 977.608L969.61 973.39L951.508 981.075L922.843 990.854L908.218 995.055L888.926 999.536L877.841 1001.61L869.819 1002.44L862.838 1003.32L857.15 1004.01L851.44 1004.25Z" fill="#FFCC00"/>
</g>
<g opacity="0.3">
<path d="M1014.96 79.5381L1005.33 95.8871L992.471 115.503L992.483 126.79L991.118 136.446L987.254 148.267L980.264 159.973L973.518 165.819L967.458 169.659L962.333 171.276L960.137 163.295L959.753 155.154L961.91 145.753L965.881 136.193L972.706 126.513L980.908 118.463L988.739 113.56L994.586 105.198L999.726 98.3894L1007.32 88.5115L1014.96 79.5381Z" fill="#FFCC00"/>
<path d="M1045.02 50.6602L1037.5 67.9393L1027.2 88.7899L1028.57 100.112L1028.39 109.924L1026.01 122.135L1020.53 134.516L1014.59 140.995L1009.08 145.399L1004.22 147.488L1001.09 139.681L999.733 131.549L1000.72 121.921L1003.48 111.968L1009.04 101.635L1016.15 92.8122L1023.28 87.1801L1028.03 78.2583L1032.28 70.9599L1038.57 60.3583L1045.02 50.6602Z" fill="#FFCC00"/>
<path d="M1070.9 19.7852L1065.95 37.9095L1058.76 59.9109L1061.71 71.1181L1062.91 80.9754L1062.29 93.4728L1058.66 106.468L1053.73 113.596L1048.94 118.597L1044.46 121.208L1040.29 113.711L1037.81 105.702L1037.42 95.9424L1038.73 85.6699L1042.74 74.7182L1048.48 65.1163L1054.69 58.7122L1058.1 49.2615L1061.24 41.4927L1065.93 30.1939L1070.9 19.7852Z" fill="#FFCC00"/>
<path d="M1097.67 -10.0234L1093.47 8.29326L1087.19 30.5637L1090.58 41.7072L1092.18 51.5506L1092.07 64.0956L1088.97 77.2316L1084.35 84.5258L1079.78 89.684L1075.42 92.4363L1070.96 85.0496L1068.16 77.0973L1067.39 67.327L1068.28 56.991L1071.82 45.8923L1077.16 36.0937L1083.09 29.4861L1086.11 19.9099L1088.93 12.0276L1093.14 0.560305L1097.67 -10.0234Z" fill="#FFCC00"/>
<path d="M851.44 213.25L844.167 213.433L860.398 210.194L879.669 205.261L896.628 200.92L914.815 195.043L929.397 189.937L946.999 182.685L965.579 174.115L982.096 165.92L999.07 156.388L1013.98 147.231L1028.87 137.622L1035.91 132.463L1044.97 126.025L1065.73 108.506L1076.7 98.5269L1087.13 88.0762L1097.77 76.5045L1106.13 66.4292L1105.21 63.4609L1104.43 52.3714L1106.84 42.7538L1112.6 32.5826L1117.26 26.6597L1125.05 20.852L1134.65 14.8853L1141.28 1.13457L1146.9 -12.2023L1151.65 -27.1508L1148.46 -12.1447L1144.45 2.15421L1138.63 16.6121L1141.35 24.6127L1141.36 30.2561L1137.93 40.2875L1128.73 54.8467L1117.8 65.7305L1110.68 69.0797L1104.9 78.7987L1109.44 75.8057L1114.81 73.9722L1123.79 71.3685L1133.62 70.3765L1146.34 69.7161L1158.33 59.323L1171.23 46.2548L1162.16 57.8841L1150.57 71.2264L1144.97 79.3721L1136.27 87.8549L1126.94 94.0573L1115.5 99.7307L1105.75 102.532L1095.38 103.052L1085.73 102.471L1078.59 111.011L1090.44 108.739L1100.82 108.219L1112.58 109.329L1120.12 109.381L1134.53 100.657L1147.63 91.6593L1142.4 96.6586L1130.89 106.166L1118.31 115.184L1112.15 122.406L1101.55 129.238L1093.14 132.766L1078.7 135.394L1066.49 135.621L1053.4 133.785L1042.38 142.86L1054.55 141.728L1063.93 142.073L1076 144.324L1083.63 146.185L1091.02 143.071L1100.19 138.894L1115.68 131.113L1102.36 140.78L1094.52 145.683L1085.09 149.625L1080.59 153.522L1070.78 160.61L1059.51 164.258L1043.49 166.376L1029.94 165.877L1018.4 163.646L1012.31 161.39L999.874 167.929L1010.77 167.428L1017.84 168.366L1025.72 170.01L1033.91 172.795L1042.4 176.268L1051.12 173.881L1057.79 171.869L1067 168.596L1082.58 162.624L1070.17 169.616L1059.48 174.64L1052.32 177.085L1042.32 180.102L1038.53 182.446L1032.47 186.285L1026.07 188.533L1017.32 190.468L1005.92 191.402L989.977 189.686L979.95 186.608L969.61 182.39L951.508 190.075L922.843 199.854L908.218 204.055L888.926 208.536L877.841 210.611L869.819 211.444L862.838 212.315L857.15 213.009L851.44 213.25Z" fill="#FFCC00"/>
</g>
</g>
<defs>
<clipPath id="clip0_2308_771">
<rect width="1440" height="2671" fill="white"/>
</clipPath>
</defs>
</svg>
